<svg id="Layer_1" data-name="Layer 1" xmlns="http://www.w3.org/2000/svg" viewBox="0 0 335.43 396.63"><defs><style>.cls-1{fill:#5ac3b4;}.cls-2{fill:#36a592;}.cls-3{fill:#287264;}.cls-4{fill:#34a08e;}.cls-10,.cls-5{fill:#b7b7b8;}.cls-6{fill:#939393;}.cls-7{fill:#d7d6d6;}.cls-8{fill:#f7f8f8;}.cls-9{fill:#fff;}.cls-10{opacity:0.68;}.cls-11{fill:#f0efef;}.cls-12{fill:#351413;}.cls-13{fill:#4f86c5;}</style></defs><title>logo</title><path class="cls-1" d="M367,905.79c-1.92-1.95-5.14-1.79-12.89-1.79H114.36c-7.76,0-11-.16-12.89,1.79-1.71,1.73-1.61,4.29-1.55,9.07,0,1,.09,2.06.09,3.31v102.29c0,8-.06,11.26,1.83,13.08,1.58,1.53,3.9,1.57,7.8,1.44,1.37,0,2.9,0,4.74,0h95.47A11,11,0,0,1,221,1046.25v0.31a4.67,4.67,0,0,0,4.19,4.44h18c2.14,0,3.76-2.29,3.76-4.44v-0.31A11.41,11.41,0,0,1,258.6,1035h95.47c1.83,0,3.39-.06,4.77,0,1,0,1.9,0,2.71,0,2.34,0,3.67-.28,4.84-1.42,1.89-1.83,1.61-5.15,1.61-13.11V918.17c0-1.24.29-2.29,0.3-3.31C368.36,910.08,368.67,907.52,367,905.79Zm-1.66,9c0,1-.3,2.16-0.3,3.42v102.29c0,6.23.28,10-.7,10.93-0.67.65-2.51,0.69-5.5,0.6-1.4,0-2.84,0-4.73,0H258.6a14.24,14.24,0,0,0-14.46,14H244v0.56c0,0.49-.27,1.44-0.76,1.44h-18a1.82,1.82,0,0,1-1.19-1.44V1046h0.29a14.24,14.24,0,0,0-14.46-14H114.36c-1.88,0-3.47-.06-4.86,0-3,.1-4.91.11-5.58-0.54-1-.94-0.91-4.76-0.91-11V918.17c0-1.26-.08-2.39-0.09-3.42,0-3.71-.11-6,0.72-6.85,1-1.06,4.67-.9,10.73-0.9H354.07c6.06,0,9.58-.16,10.62.9C365.52,908.74,365.35,911,365.3,914.75Z" transform="translate(-91.05 -752.76)"/><path class="cls-2" d="M354.07,907H114.36c-6.06,0-9.63-.16-10.68.9-0.83.84-.82,3.19-0.77,6.9,0,1,.09,2.11.09,3.36v102.29c0,6.23-.06,10,0.91,10.93,0.67,0.65,2.53.7,5.53,0.6,1.4,0,3,0,4.92,0h95.47a14.24,14.24,0,0,1,14.46,14H224v0.56a1.82,1.82,0,0,0,1.19,1.44h18c0.49,0,.76-0.95.76-1.44V1046h0.14a14.24,14.24,0,0,1,14.46-14h95.47c1.88,0,3.38-.06,4.78,0,3,0.1,4.78.11,5.45-.54,1-.94.7-4.76,0.7-11V918.17c0-1.26.29-2.39,0.3-3.42,0-3.71.22-6-.61-6.85C363.65,906.84,360.13,907,354.07,907Z" transform="translate(-91.05 -752.76)"/><path class="cls-3" d="M354.07,907h-1.56l5.6,21.33a32.75,32.75,0,0,0,6.89-6.12v-4c0-1.26.29-2.39,0.3-3.42,0-3.71.22-6-.61-6.85C363.65,906.84,360.13,907,354.07,907Z" transform="translate(-91.05 -752.76)"/><path class="cls-4" d="M354.52,903.77l0.72,3c5.36,0,8.54,0,9.51,1,0.83,0.84.6,3.25,0.56,7,0,1-.3,2.16-0.3,3.42v4a11.15,11.15,0,0,0,3-2.8v-1.24c0-1.24.29-2.35,0.3-3.36,0.06-4.78.32-7.4-1.39-9.13C365,903.77,361.95,903.77,354.52,903.77Z" transform="translate(-91.05 -752.76)"/><path class="cls-5" d="M344.48,895H122.91c-7.08,0-9.91,6-9.91,11.3v102.12A11.85,11.85,0,0,0,124.79,1020h95.94a14.48,14.48,0,0,1,13.06,8.26,14.48,14.48,0,0,1,13.06-8.26h96.79A11.48,11.48,0,0,0,355,1008.42V906.3C355,899.75,350.54,895,344.48,895Z" transform="translate(-91.05 -752.76)"/><path class="cls-6" d="M344.48,895h-9.75l-1.28.31,11.66,42.05S355,933,355,930.87V906.3C355,899.75,350.54,895,344.48,895Z" transform="translate(-91.05 -752.76)"/><path class="cls-7" d="M344.48,892H122.91c-7.53,0-12.91,5.64-12.91,14.3v102.12A14.85,14.85,0,0,0,124.79,1023h95.94c6.33,0,11.48,5,11.48,12h3.16c0-7,5.15-12,11.48-12h96.79A14.48,14.48,0,0,0,358,1008.42V906.3C358,898,352.25,892,344.48,892ZM355,1008.42A11.48,11.48,0,0,1,343.64,1020H246.85a14.48,14.48,0,0,0-13.06,8.26,14.48,14.48,0,0,0-13.06-8.26H124.79A11.85,11.85,0,0,1,113,1008.42V906.3c0-5.3,2.83-11.3,9.91-11.3H344.48c6.06,0,10.52,4.75,10.52,11.3v102.12Z" transform="translate(-91.05 -752.76)"/><path class="cls-5" d="M344.48,892H334l1.63,3h8.87c6.06,0,10.52,4.75,10.52,11.3v24.57a12.81,12.81,0,0,0,3-2.65V906.3C358,898,352.25,892,344.48,892Z" transform="translate(-91.05 -752.76)"/><path class="cls-8" d="M332.22,880H247.33a14.51,14.51,0,0,0-13,8.1,14.46,14.46,0,0,0-13-8.1H136.49c-8,0-15.49,6.1-15.49,14.08V996.21c0,8,7.51,14.79,15.49,14.79h84.88a11.69,11.69,0,0,1,11.48,11.68s0,0.32,0,.32H235v-0.9c0-6.28,6-11.1,12.33-11.1h84.2c8,0,13.47-6.6,13.47-14.6V894.14C345,886.15,340.2,880,332.22,880ZM221.38,1008H136.49c-6.33,0-12.49-5.46-12.49-11.79V894.08c0-6.33,6.16-11.08,12.49-11.08h84.88a11.45,11.45,0,0,1,11.48,11.4s0,0.18,0,.18h0L233,1013.73C230,1010.28,226.05,1008,221.38,1008Zm110.16,0h-84.2c-4.67,0-9.8,2.26-11.8,5.7L235,894.08v-0.14c0-6.29,6-10.94,12.33-10.94h84.88c6.33,0,9.78,4.81,9.78,11.14V996.21C342,1002.54,337.53,1008,331.53,1008Z" transform="translate(-91.05 -752.76)"/><path class="cls-7" d="M332.22,883H247.33C241,883,235,887.65,235,893.94v0.14l0.54,119.62c2-3.45,7.12-5.7,11.8-5.7h84.26c6,0,10.41-5.46,10.41-11.79V894.14C342,887.81,338.55,883,332.22,883Z" transform="translate(-91.05 -752.76)"/><path class="cls-7" d="M232.86,894.4A11.45,11.45,0,0,0,221.38,883H136.49c-6.33,0-12.49,4.75-12.49,11.08V996.21c0,6.33,6.16,11.79,12.49,11.79h84.88a15.28,15.28,0,0,1,11.62,5.7l-0.15-119.06S232.86,894.43,232.86,894.4Z" transform="translate(-91.05 -752.76)"/><path class="cls-7" d="M332.22,883c6.33,0,9.78,4.81,9.78,11.14v44.5l3-1.33V894.14c0-8-4.8-14.14-12.78-14.14H284.57l0.48,3h47.16Z" transform="translate(-91.05 -752.76)"/><path class="cls-9" d="M257.72,916l0.51-.67a23.26,23.26,0,0,1,1.55-1.81,15.48,15.48,0,0,1,2.86-2.45,5.49,5.49,0,0,1,2.35-.94,4,4,0,0,1,1.45.16c0.43,0.12.9,0.28,1.31,0.44a41.82,41.82,0,0,1,5.16,2.52c0.87,0.48,1.79,1,2.65,1.46l0.15,0.08,0.09,0h0l-0.3-.08h0.19l-0.08,0h-0.17l-0.15,0,0,0,0.08,0,0.24-.17c0.35-.27.75-0.62,1.16-1a20.13,20.13,0,0,1,2.8-2.18,5.28,5.28,0,0,1,2.14-.8h0.42l0.21,0a3.44,3.44,0,0,1,.56.1l0.63,0.16L284,911a65.6,65.6,0,0,1,6.44,3l3.05,1.58a20.44,20.44,0,0,0,2.89,1.24,0.73,0.73,0,0,0,.23.06h0.07l-0.21,0h0.05l0.21-.05c0.05,0,.18,0,0.14-0.05s0,0,0,0a6.2,6.2,0,0,0,1-.88c0.7-.74,1.36-1.59,2-2.44s1.3-1.73,2.1-2.57a8.22,8.22,0,0,1,.69-0.65l0.51-.34a2.57,2.57,0,0,1,.45-0.17l0.24-.06h0.06c0.11,0-.16,0,0.26,0h0l0.19,0,0.25,0.06c0.21,0.06.42,0.13,0.62,0.22s0.52,0.26.77,0.4a55.48,55.48,0,0,1,4.73,3.23l2,1.45a16.71,16.71,0,0,0,1.8,1.18,1,1,0,0,0,.17.08l0.07,0h0v0.31c-0.21,0,0,.3-0.09.3h0.06a0.56,0.56,0,0,0,.2-0.32,0.42,0.42,0,0,1,0-.17,3.29,3.29,0,0,0,.61-0.58,15.87,15.87,0,0,0,1-1.31,8.31,8.31,0,0,1,1.62-1.79,1.13,1.13,0,0,1,.81-0.25,1,1,0,0,0-.7.36,9.21,9.21,0,0,0-1.22,2,16.17,16.17,0,0,1-.87,1.49,3.21,3.21,0,0,1-.75.82,2.19,2.19,0,0,1-.41.19,1.19,1.19,0,0,1-.3.06h-0.25l-0.18,0a2.05,2.05,0,0,1-.33-0.09,32.83,32.83,0,0,1-4.32-2.25c-1.51-.86-3.14-1.85-4.82-2.68l-0.59-.25a0.18,0.18,0,0,1-.1,0,0.15,0.15,0,0,0-.12,0l-0.19,0h0.24a0.22,0.22,0,0,0,.09,0l-0.12.11c-0.13.14-.26,0.26-0.41,0.46-0.58.72-1.19,1.6-1.82,2.49s-1.28,1.82-2.08,2.75a8.64,8.64,0,0,1-1.48,1.4,5.7,5.7,0,0,1-.75.39,3.64,3.64,0,0,1-.46.14l-0.05.1c-0.11,0,.21.13-0.26,0.13h0l-0.19-.09-0.39-.07a2.64,2.64,0,0,1-.61-0.14,22,22,0,0,1-3.47-1.4c-1.06-.51-2.11-1-3.14-1.57a64.67,64.67,0,0,0-6-3l-0.35-.13-0.2-.06a0.55,0.55,0,0,0-.27-0.07l-0.21,0h0a2.62,2.62,0,0,0-1,.36,17.87,17.87,0,0,0-2.49,1.78c-0.43.34-.85,0.69-1.36,1-0.14.09-.26,0.18-0.43,0.27l-0.27.14-0.15.07-0.34.1-0.35,0H275.2c-0.64-.16-0.2-0.05-0.35-0.09l0,0-0.27-.14-0.19-.11c-1-.6-1.77-1.16-2.61-1.7-1.66-1.07-3.22-2.09-4.7-2.86-0.38-.2-0.71-0.35-1.06-0.5a2.85,2.85,0,0,0-.93-0.24,4.26,4.26,0,0,0-1.88.5,17.57,17.57,0,0,0-3,1.89A31.1,31.1,0,0,0,257.72,916Z" transform="translate(-91.05 -752.76)"/><path class="cls-9" d="M257.72,940l0.51-.67a23.26,23.26,0,0,1,1.55-1.81,15.48,15.48,0,0,1,2.86-2.45,5.49,5.49,0,0,1,2.35-.94,4,4,0,0,1,1.45.16c0.43,0.12.9,0.28,1.31,0.44a41.82,41.82,0,0,1,5.16,2.52c0.87,0.48,1.79,1,2.65,1.46l0.15,0.08,0.09,0h0l-0.3-.08h0.19l-0.08,0h-0.17l-0.15,0,0,0,0.08,0,0.24-.17c0.35-.27.75-0.62,1.16-1a20.13,20.13,0,0,1,2.8-2.18,5.28,5.28,0,0,1,2.14-.8h0.42l0.21,0a3.44,3.44,0,0,1,.56.1l0.63,0.16L284,935a65.6,65.6,0,0,1,6.44,3l3.05,1.58a20.44,20.44,0,0,0,2.89,1.24,0.73,0.73,0,0,0,.23.06h0.07l-0.21,0h0.05l0.21-.05c0.05,0,.18,0,0.14-0.05s0,0,0,0a6.2,6.2,0,0,0,1-.88c0.7-.74,1.36-1.59,2-2.44s1.3-1.73,2.1-2.57a8.22,8.22,0,0,1,.69-0.65l0.51-.34a2.57,2.57,0,0,1,.45-0.17l0.24-.06h0.06c0.11,0-.16,0,0.26,0h0l0.19,0,0.25,0.06c0.21,0.06.42,0.13,0.62,0.22s0.52,0.26.77,0.4a55.48,55.48,0,0,1,4.73,3.23l2,1.45a16.71,16.71,0,0,0,1.8,1.18,1,1,0,0,0,.17.08l0.07,0h0v0.31c-0.21,0,0,.3-0.09.3h0.06a0.56,0.56,0,0,0,.2-0.32,0.42,0.42,0,0,1,0-.17,3.29,3.29,0,0,0,.61-0.58,15.87,15.87,0,0,0,1-1.31,8.31,8.31,0,0,1,1.62-1.79,1.13,1.13,0,0,1,.81-0.25,1,1,0,0,0-.7.36,9.21,9.21,0,0,0-1.22,2,16.17,16.17,0,0,1-.87,1.49,3.21,3.21,0,0,1-.75.82,2.19,2.19,0,0,1-.41.19,1.19,1.19,0,0,1-.3.06h-0.25l-0.18,0a2.05,2.05,0,0,1-.33-0.09,32.83,32.83,0,0,1-4.32-2.25c-1.51-.86-3.14-1.85-4.82-2.68l-0.59-.25a0.18,0.18,0,0,1-.1,0,0.15,0.15,0,0,0-.12,0l-0.19,0h0.24a0.22,0.22,0,0,0,.09,0l-0.12.11c-0.13.14-.26,0.26-0.41,0.46-0.58.72-1.19,1.6-1.82,2.49s-1.28,1.82-2.08,2.75a8.64,8.64,0,0,1-1.48,1.4,5.7,5.7,0,0,1-.75.39,3.64,3.64,0,0,1-.46.14l-0.05.1c-0.11,0,.21.13-0.26,0.13h0l-0.19-.09-0.39-.07a2.64,2.64,0,0,1-.61-0.14,22,22,0,0,1-3.47-1.4c-1.06-.51-2.11-1-3.14-1.57a64.67,64.67,0,0,0-6-3l-0.35-.13-0.2-.06a0.55,0.55,0,0,0-.27-0.07l-0.21,0h0a2.62,2.62,0,0,0-1,.36,17.87,17.87,0,0,0-2.49,1.78c-0.43.34-.85,0.69-1.36,1-0.14.09-.26,0.18-0.43,0.27l-0.27.14-0.15.07-0.34.1-0.35,0H275.2c-0.64-.16-0.2-0.05-0.35-0.09l0,0-0.27-.14-0.19-.11c-1-.6-1.77-1.16-2.61-1.7-1.66-1.07-3.22-2.09-4.7-2.86-0.38-.2-0.71-0.35-1.06-0.5a2.85,2.85,0,0,0-.93-0.24,4.26,4.26,0,0,0-1.88.5,17.57,17.57,0,0,0-3,1.89A31.1,31.1,0,0,0,257.72,940Z" transform="translate(-91.05 -752.76)"/><path class="cls-10" d="M332.22,883H288.43l-15.66,51.51S319,950.16,342,938.63v-44.5C342,887.81,338.55,883,332.22,883Z" transform="translate(-91.05 -752.76)"/><path class="cls-11" d="M268.86,934.76l7.07-.65c40.72-9.16,43.56-27.35,43.56-27.35-4.72,0-12-20-12-20,1.28,4.47,18,9,18,9C387.77,837.19,376.74,756,376.74,756s-2.23,17.41-8.41,21.09c-5.56,3.31-86.53,52.59-99.45,157.56Z" transform="translate(-91.05 -752.76)"/><path class="cls-9" d="M257.72,967l0.51-.67a23.26,23.26,0,0,1,1.55-1.81,15.48,15.48,0,0,1,2.86-2.45,5.49,5.49,0,0,1,2.35-.94,4,4,0,0,1,1.45.16c0.43,0.12.9,0.28,1.31,0.44a41.82,41.82,0,0,1,5.16,2.52c0.87,0.48,1.79,1,2.65,1.46l0.15,0.08,0.09,0h0l-0.3-.08h0.19l-0.08,0h-0.17l-0.15,0,0,0,0.08,0,0.24-.17c0.35-.27.75-0.62,1.16-1a20.13,20.13,0,0,1,2.8-2.18,5.28,5.28,0,0,1,2.14-.8h0.42l0.21,0a3.44,3.44,0,0,1,.56.1l0.63,0.16L284,962a65.6,65.6,0,0,1,6.44,3l3.05,1.58a20.44,20.44,0,0,0,2.89,1.24,0.73,0.73,0,0,0,.23.06h0.07l-0.21,0h0.05l0.21-.05c0.05,0,.18,0,0.14-0.05s0,0,0,0a6.2,6.2,0,0,0,1-.88c0.7-.74,1.36-1.59,2-2.44s1.3-1.73,2.1-2.57a8.22,8.22,0,0,1,.69-0.65l0.51-.34a2.57,2.57,0,0,1,.45-0.17l0.24-.06h0.06c0.11,0-.16,0,0.26,0h0l0.19,0,0.25,0.06c0.21,0.06.42,0.13,0.62,0.22s0.52,0.26.77,0.4a55.48,55.48,0,0,1,4.73,3.23l2,1.45a16.71,16.71,0,0,0,1.8,1.18,1,1,0,0,0,.17.08l0.07,0h0v0.31c-0.21,0,0,.3-0.09.3h0.06a0.56,0.56,0,0,0,.2-0.32,0.42,0.42,0,0,1,0-.17,3.29,3.29,0,0,0,.61-0.58,15.87,15.87,0,0,0,1-1.31,8.31,8.31,0,0,1,1.62-1.79,1.13,1.13,0,0,1,.81-0.25,1,1,0,0,0-.7.36,9.21,9.21,0,0,0-1.22,2,16.17,16.17,0,0,1-.87,1.49,3.21,3.21,0,0,1-.75.82,2.19,2.19,0,0,1-.41.19,1.19,1.19,0,0,1-.3.06h-0.25l-0.18,0a2.05,2.05,0,0,1-.33-0.09,32.83,32.83,0,0,1-4.32-2.25c-1.51-.86-3.14-1.85-4.82-2.68l-0.59-.25a0.18,0.18,0,0,1-.1,0,0.15,0.15,0,0,0-.12,0l-0.19,0h0.24a0.22,0.22,0,0,0,.09,0l-0.12.11c-0.13.14-.26,0.26-0.41,0.46-0.58.72-1.19,1.6-1.82,2.49s-1.28,1.82-2.08,2.75a8.64,8.64,0,0,1-1.48,1.4,5.7,5.7,0,0,1-.75.39,3.64,3.64,0,0,1-.46.14l-0.05.1c-0.11,0,.21.13-0.26,0.13h0l-0.19-.09-0.39-.07a2.64,2.64,0,0,1-.61-0.14,22,22,0,0,1-3.47-1.4c-1.06-.51-2.11-1-3.14-1.57a64.67,64.67,0,0,0-6-3l-0.35-.13-0.2-.06a0.55,0.55,0,0,0-.27-0.07l-0.21,0h0a2.62,2.62,0,0,0-1,.36,17.87,17.87,0,0,0-2.49,1.78c-0.43.34-.85,0.69-1.36,1-0.14.09-.26,0.18-0.43,0.27l-0.27.14-0.15.07-0.34.1-0.35,0H275.2c-0.64-.16-0.2-0.05-0.35-0.09l0,0-0.27-.14-0.19-.11c-1-.6-1.77-1.16-2.61-1.7-1.66-1.07-3.22-2.09-4.7-2.86-0.38-.2-0.71-0.35-1.06-0.5a2.85,2.85,0,0,0-.93-0.24,4.26,4.26,0,0,0-1.88.5,17.57,17.57,0,0,0-3,1.89A31.1,31.1,0,0,0,257.72,967Z" transform="translate(-91.05 -752.76)"/><path class="cls-12" d="M267.29,971.73l-0.14-2.87L267,965.41l-0.1-4.68c0-3.5,0-7.76.19-12.64s0.59-10.39,1.34-16.36a213.78,213.78,0,0,1,8.86-40.16,204.36,204.36,0,0,1,8.47-21.66,216,216,0,0,1,11.2-21.24,219.08,219.08,0,0,1,28.61-37.52,212.83,212.83,0,0,1,15.7-15c5.22-4.52,10.36-8.55,15.25-12.07,2.44-1.76,4.83-3.38,7.16-4.84q1.74-1.1,3.43-2.09a14.51,14.51,0,0,0,1.56-1,7.46,7.46,0,0,0,1.21-1.24,22.41,22.41,0,0,0,3-5.92c0.72-2,1.25-3.82,1.69-5.51,0.86-3.38,1.39-6.08,1.71-7.92s0.45-2.84.45-2.84-0.08,1-.31,2.86-0.59,4.59-1.33,8c-0.38,1.71-.84,3.61-1.5,5.63a23.2,23.2,0,0,1-2.95,6.29,8.5,8.5,0,0,1-1.33,1.46,15.93,15.93,0,0,1-1.64,1.12q-1.62,1-3.3,2.21-3.35,2.34-6.93,5c-4.76,3.61-9.75,7.74-14.8,12.35s-10.15,9.72-15.21,15.2-10,11.42-14.7,17.65a223.21,223.21,0,0,0-13.26,19.64,216.78,216.78,0,0,0-11.14,20.91,222.87,222.87,0,0,0-8.59,21.28c-2.39,7.05-4.41,14-6,20.63s-2.79,13-3.68,18.92-1.45,11.36-1.9,16.2-0.61,9.08-.72,12.58l-0.12,4.66,0,3.45Z" transform="translate(-91.05 -752.76)"/><path class="cls-9" d="M143.72,916l0.51-.67a23.26,23.26,0,0,1,1.55-1.81,15.48,15.48,0,0,1,2.86-2.45,5.49,5.49,0,0,1,2.35-.94,4,4,0,0,1,1.45.16c0.43,0.12.9,0.28,1.31,0.44a41.82,41.82,0,0,1,5.16,2.52c0.87,0.48,1.79,1,2.65,1.46l0.15,0.08,0.09,0h0l-0.3-.08h0.19l-0.08,0h-0.17l-0.15,0,0,0,0.08,0,0.24-.17c0.35-.27.75-0.62,1.16-1a20.13,20.13,0,0,1,2.8-2.18,5.28,5.28,0,0,1,2.14-.8h0.42l0.21,0a3.44,3.44,0,0,1,.56.1l0.63,0.16L170,911a65.6,65.6,0,0,1,6.44,3l3.05,1.58a20.44,20.44,0,0,0,2.89,1.24,0.73,0.73,0,0,0,.23.06h0.07l-0.21,0h0.05l0.21-.05c0.05,0,.18,0,0.14-0.05s0,0,0,0a6.2,6.2,0,0,0,1-.88c0.7-.74,1.36-1.59,2-2.44s1.3-1.73,2.1-2.57a8.22,8.22,0,0,1,.69-0.65l0.51-.34a2.57,2.57,0,0,1,.45-0.17l0.24-.06h0.06c0.11,0-.16,0,0.26,0h0l0.19,0,0.25,0.06c0.21,0.06.42,0.13,0.62,0.22s0.52,0.26.77,0.4a55.48,55.48,0,0,1,4.73,3.23l2,1.45a16.71,16.71,0,0,0,1.8,1.18,1,1,0,0,0,.17.08l0.07,0h0v0.31c-0.21,0,0,.3-0.09.3h0.06a0.56,0.56,0,0,0,.2-0.32,0.42,0.42,0,0,1,0-.17,3.29,3.29,0,0,0,.61-0.58,15.87,15.87,0,0,0,1-1.31,8.31,8.31,0,0,1,1.62-1.79,1.13,1.13,0,0,1,.8-0.25,1,1,0,0,0-.7.36,9.21,9.21,0,0,0-1.22,2,16.17,16.17,0,0,1-.87,1.49,3.21,3.21,0,0,1-.75.82,2.19,2.19,0,0,1-.41.19,1.19,1.19,0,0,1-.3.06h-0.25l-0.18,0a2.05,2.05,0,0,1-.33-0.09,32.83,32.83,0,0,1-4.32-2.25c-1.51-.86-3.14-1.85-4.82-2.68l-0.59-.25a0.18,0.18,0,0,1-.1,0,0.15,0.15,0,0,0-.12,0l-0.19,0h0.24a0.22,0.22,0,0,0,.09,0l-0.12.11c-0.13.14-.26,0.26-0.41,0.46-0.58.72-1.19,1.6-1.82,2.49s-1.28,1.82-2.08,2.75a8.64,8.64,0,0,1-1.48,1.4,5.7,5.7,0,0,1-.75.39,3.64,3.64,0,0,1-.46.14l-0.05.1c-0.11,0,.21.13-0.26,0.13h0l-0.19-.09-0.39-.07a2.64,2.64,0,0,1-.61-0.14,22,22,0,0,1-3.47-1.4c-1.06-.51-2.11-1-3.14-1.57a64.67,64.67,0,0,0-6-3l-0.35-.13-0.2-.06a0.55,0.55,0,0,0-.27-0.07l-0.21,0h0a2.62,2.62,0,0,0-1,.36,17.87,17.87,0,0,0-2.49,1.78c-0.43.34-.85,0.69-1.36,1-0.14.09-.26,0.18-0.43,0.27l-0.27.14-0.15.07-0.34.1-0.35,0H161.2c-0.64-.16-0.2-0.05-0.35-0.09l0,0-0.27-.14-0.19-.11c-1-.6-1.77-1.16-2.61-1.7-1.66-1.07-3.22-2.09-4.7-2.86-0.38-.2-0.71-0.35-1.06-0.5a2.85,2.85,0,0,0-.93-0.24,4.26,4.26,0,0,0-1.88.5,17.57,17.57,0,0,0-3,1.89A31.1,31.1,0,0,0,143.72,916Z" transform="translate(-91.05 -752.76)"/><path class="cls-9" d="M143.72,940l0.51-.67a23.26,23.26,0,0,1,1.55-1.81,15.48,15.48,0,0,1,2.86-2.45,5.49,5.49,0,0,1,2.35-.94,4,4,0,0,1,1.45.16c0.43,0.12.9,0.28,1.31,0.44a41.82,41.82,0,0,1,5.16,2.52c0.87,0.48,1.79,1,2.65,1.46l0.15,0.08,0.09,0h0l-0.3-.08h0.19l-0.08,0h-0.17l-0.15,0,0,0,0.08,0,0.24-.17c0.35-.27.75-0.62,1.16-1a20.13,20.13,0,0,1,2.8-2.18,5.28,5.28,0,0,1,2.14-.8h0.42l0.21,0a3.44,3.44,0,0,1,.56.1l0.63,0.16L170,935a65.6,65.6,0,0,1,6.44,3l3.05,1.58a20.44,20.44,0,0,0,2.89,1.24,0.73,0.73,0,0,0,.23.06h0.07l-0.21,0h0.05l0.21-.05c0.05,0,.18,0,0.14-0.05s0,0,0,0a6.2,6.2,0,0,0,1-.88c0.7-.74,1.36-1.59,2-2.44s1.3-1.73,2.1-2.57a8.22,8.22,0,0,1,.69-0.65l0.51-.34a2.57,2.57,0,0,1,.45-0.17l0.24-.06h0.06c0.11,0-.16,0,0.26,0h0l0.19,0,0.25,0.06c0.21,0.06.42,0.13,0.62,0.22s0.52,0.26.77,0.4a55.48,55.48,0,0,1,4.73,3.23l2,1.45a16.71,16.71,0,0,0,1.8,1.18,1,1,0,0,0,.17.08l0.07,0h0v0.31c-0.21,0,0,.3-0.09.3h0.06a0.56,0.56,0,0,0,.2-0.32,0.42,0.42,0,0,1,0-.17,3.29,3.29,0,0,0,.61-0.58,15.87,15.87,0,0,0,1-1.31,8.31,8.31,0,0,1,1.62-1.79,1.13,1.13,0,0,1,.8-0.25,1,1,0,0,0-.7.36,9.21,9.21,0,0,0-1.22,2,16.17,16.17,0,0,1-.87,1.49,3.21,3.21,0,0,1-.75.82,2.19,2.19,0,0,1-.41.19,1.19,1.19,0,0,1-.3.06h-0.25l-0.18,0a2.05,2.05,0,0,1-.33-0.09,32.83,32.83,0,0,1-4.32-2.25c-1.51-.86-3.14-1.85-4.82-2.68l-0.59-.25a0.18,0.18,0,0,1-.1,0,0.15,0.15,0,0,0-.12,0l-0.19,0h0.24a0.22,0.22,0,0,0,.09,0l-0.12.11c-0.13.14-.26,0.26-0.41,0.46-0.58.72-1.19,1.6-1.82,2.49s-1.28,1.82-2.08,2.75a8.64,8.64,0,0,1-1.48,1.4,5.7,5.7,0,0,1-.75.39,3.64,3.64,0,0,1-.46.14l-0.05.1c-0.11,0,.21.13-0.26,0.13h0l-0.19-.09-0.39-.07a2.64,2.64,0,0,1-.61-0.14,22,22,0,0,1-3.47-1.4c-1.06-.51-2.11-1-3.14-1.57a64.67,64.67,0,0,0-6-3l-0.35-.13-0.2-.06a0.55,0.55,0,0,0-.27-0.07l-0.21,0h0a2.62,2.62,0,0,0-1,.36,17.87,17.87,0,0,0-2.49,1.78c-0.43.34-.85,0.69-1.36,1-0.14.09-.26,0.18-0.43,0.27l-0.27.14-0.15.07-0.34.1-0.35,0H161.2c-0.64-.16-0.2-0.05-0.35-0.09l0,0-0.27-.14-0.19-.11c-1-.6-1.77-1.16-2.61-1.7-1.66-1.07-3.22-2.09-4.7-2.86-0.38-.2-0.71-0.35-1.06-0.5a2.85,2.85,0,0,0-.93-0.24,4.26,4.26,0,0,0-1.88.5,17.57,17.57,0,0,0-3,1.89A31.1,31.1,0,0,0,143.72,940Z" transform="translate(-91.05 -752.76)"/><path class="cls-9" d="M143.72,967l0.51-.67a23.26,23.26,0,0,1,1.55-1.81,15.48,15.48,0,0,1,2.86-2.45,5.49,5.49,0,0,1,2.35-.94,4,4,0,0,1,1.45.16c0.43,0.12.9,0.28,1.31,0.44a41.82,41.82,0,0,1,5.16,2.52c0.87,0.48,1.79,1,2.65,1.46l0.15,0.08,0.09,0h0l-0.3-.08h0.19l-0.08,0h-0.17l-0.15,0,0,0,0.08,0,0.24-.17c0.35-.27.75-0.62,1.16-1a20.13,20.13,0,0,1,2.8-2.18,5.28,5.28,0,0,1,2.14-.8h0.42l0.21,0a3.44,3.44,0,0,1,.56.1l0.63,0.16L170,962a65.6,65.6,0,0,1,6.44,3l3.05,1.58a20.44,20.44,0,0,0,2.89,1.24,0.73,0.73,0,0,0,.23.06h0.07l-0.21,0h0.05l0.21-.05c0.05,0,.18,0,0.14-0.05s0,0,0,0a6.2,6.2,0,0,0,1-.88c0.7-.74,1.36-1.59,2-2.44s1.3-1.73,2.1-2.57a8.22,8.22,0,0,1,.69-0.65l0.51-.34a2.57,2.57,0,0,1,.45-0.17l0.24-.06h0.06c0.11,0-.16,0,0.26,0h0l0.19,0,0.25,0.06c0.21,0.06.42,0.13,0.62,0.22s0.52,0.26.77,0.4a55.48,55.48,0,0,1,4.73,3.23l2,1.45a16.71,16.71,0,0,0,1.8,1.18,1,1,0,0,0,.17.08l0.07,0h0v0.31c-0.21,0,0,.3-0.09.3h0.06a0.56,0.56,0,0,0,.2-0.32,0.42,0.42,0,0,1,0-.17,3.29,3.29,0,0,0,.61-0.58,15.87,15.87,0,0,0,1-1.31,8.31,8.31,0,0,1,1.62-1.79,1.13,1.13,0,0,1,.8-0.25,1,1,0,0,0-.7.36,9.21,9.21,0,0,0-1.22,2,16.17,16.17,0,0,1-.87,1.49,3.21,3.21,0,0,1-.75.82,2.19,2.19,0,0,1-.41.19,1.19,1.19,0,0,1-.3.06h-0.25l-0.18,0a2.05,2.05,0,0,1-.33-0.09,32.83,32.83,0,0,1-4.32-2.25c-1.51-.86-3.14-1.85-4.82-2.68l-0.59-.25a0.18,0.18,0,0,1-.1,0,0.15,0.15,0,0,0-.12,0l-0.19,0h0.24a0.22,0.22,0,0,0,.09,0l-0.12.11c-0.13.14-.26,0.26-0.41,0.46-0.58.72-1.19,1.6-1.82,2.49s-1.28,1.82-2.08,2.75a8.64,8.64,0,0,1-1.48,1.4,5.7,5.7,0,0,1-.75.39,3.64,3.64,0,0,1-.46.14l-0.05.1c-0.11,0,.21.13-0.26,0.13h0l-0.19-.09-0.39-.07a2.64,2.64,0,0,1-.61-0.14,22,22,0,0,1-3.47-1.4c-1.06-.51-2.11-1-3.14-1.57a64.67,64.67,0,0,0-6-3l-0.35-.13-0.2-.06a0.55,0.55,0,0,0-.27-0.07l-0.21,0h0a2.62,2.62,0,0,0-1,.36,17.87,17.87,0,0,0-2.49,1.78c-0.43.34-.85,0.69-1.36,1-0.14.09-.26,0.18-0.43,0.27l-0.27.14-0.15.07-0.34.1-0.35,0H161.2c-0.64-.16-0.2-0.05-0.35-0.09l0,0-0.27-.14-0.19-.11c-1-.6-1.77-1.16-2.61-1.7-1.66-1.07-3.22-2.09-4.7-2.86-0.38-.2-0.71-0.35-1.06-0.5a2.85,2.85,0,0,0-.93-0.24,4.26,4.26,0,0,0-1.88.5,17.57,17.57,0,0,0-3,1.89A31.1,31.1,0,0,0,143.72,967Z" transform="translate(-91.05 -752.76)"/><path class="cls-13" d="M115.24,1073.92h2.16q0.87,2.39,1.71,4.52,3.66,9.38,4.41,11.16l2.81,6.94L129,1086q1.57-6.23,1.8-7.64a3.83,3.83,0,0,0,.07-0.7,1.08,1.08,0,0,0-.89-1.17q-0.21,0-3-.26v-1.95q4.2,0.16,5.09.16l5.53-.16v1.95l-0.52,0a5.65,5.65,0,0,0-1.8.28,1.92,1.92,0,0,0-.63.68,41.08,41.08,0,0,0-1.61,4.83q-1.3,4.34-3.82,13.91t-2.78,11.26H123l-2.53-6.8-6.4-16.27q-1,2.2-7.2,16.83l-2.51,6.23H100.9l-5.44-24.94a36.46,36.46,0,0,0-1.27-4.95,1.49,1.49,0,0,0-.7-0.8,7,7,0,0,0-2.44-.33v-1.95l6.54,0.14,7.66-.14v1.95l-2.27.09a1.69,1.69,0,0,0-.94.36,1.07,1.07,0,0,0-.28.81,5.89,5.89,0,0,0,0,.6q0,0.34.48,2.71,0.87,4.66,1.27,6.52l2.09,9.49,2-4.73,3-6.87,3.73-8.93Q114.75,1075.18,115.24,1073.92Z" transform="translate(-91.05 -752.76)"/><path class="cls-13" d="M149.5,1076.26v-1.92l3.75,0.09q1.57,0,4.45,0,2.46,0,4.22-.09,2.91-.12,4.8-0.12a21.34,21.34,0,0,1,5.51.53,6,6,0,0,1,3.12,2.19,6.42,6.42,0,0,1,1.29,4.05,8.34,8.34,0,0,1-1.76,5.16,11.67,11.67,0,0,1-5.41,3.68q0.59,1.05,1.34,2.16t0.88,1.34q0.13,0.23.27,0.45l3.63,5.46,1.57,2.34q1.76,2.34,2.16,2.77a2.46,2.46,0,0,0,.77.59,4.56,4.56,0,0,0,1.48.19v1.95q-3.61-.09-5.23-0.09-1.87,0-3.73.09a5.62,5.62,0,0,0-.56-1.34l-5-8.27q-2.16-3.56-3.66-5.6a7,7,0,0,0-1.45-1.55l0.26-.77a9.65,9.65,0,0,0,4.24-.57,5.54,5.54,0,0,0,2.41-2.39,7.63,7.63,0,0,0,1-3.86,6,6,0,0,0-1-3.59,5.44,5.44,0,0,0-2.55-2,11.9,11.9,0,0,0-3.52-.35,13.25,13.25,0,0,0-2.23.19q-0.07.84-.14,3.8-0.14,6.63-.14,8.86,0,3.52.07,7.45,0.09,4.83.14,5.48a5.58,5.58,0,0,0,.26,1.71,1,1,0,0,0,.3.34,1.8,1.8,0,0,0,.68.25,23.87,23.87,0,0,0,2.72.14v2.06q-4-.14-8.11-0.14-3.66,0-6.77.14V1105a18.06,18.06,0,0,0,3.16-.26,0.72,0.72,0,0,0,.41-0.23,1.5,1.5,0,0,0,.2-0.66,21.72,21.72,0,0,0,.23-2.77l0.19-6.84v-8.7l-0.09-4.95a14.89,14.89,0,0,0-.28-3.52,0.87,0.87,0,0,0-.35-0.4A13.48,13.48,0,0,0,149.5,1076.26Z" transform="translate(-91.05 -752.76)"/><path class="cls-13" d="M209,1074.32v2.06a22.68,22.68,0,0,0-2.81.18,1.63,1.63,0,0,0-.63.26,0.77,0.77,0,0,0-.26.39,5.57,5.57,0,0,0-.23,1.52q0,0.61-.07,2.3-0.09,5.77-.09,6.21v9.45L205,1101a12.89,12.89,0,0,0,.23,3.14,1,1,0,0,0,.32.5,1.77,1.77,0,0,0,.7.28,21.92,21.92,0,0,0,2.78.15v2.06q-3.82-.14-8.16-0.14-3.77,0-6.73.14V1105q2.44-.09,2.81-0.16a1.4,1.4,0,0,0,.67-0.26,0.72,0.72,0,0,0,.22-0.37q0.07-.28.19-2.2,0.19-2.81.19-5.2V1087q0-4.66,0-6a29.75,29.75,0,0,0-.28-3.73,1,1,0,0,0-.22-0.47,1.17,1.17,0,0,0-.56-0.27,24.75,24.75,0,0,0-3-.2v-2.06q3,0.14,6.77.14Q205.18,1074.46,209,1074.32Z" transform="translate(-91.05 -752.76)"/><path class="cls-13" d="M228.56,1107.11v-1.92a11.43,11.43,0,0,0,3.34-.37,1.46,1.46,0,0,0,.71-0.94,38.28,38.28,0,0,0,.26-6.07v-14q0-5.74-.07-6.42h-3.35q-2.53,0-4.45.16a2,2,0,0,0-.89.19,1.61,1.61,0,0,0-.28.82,23.17,23.17,0,0,0-.35,3.68h-1.95q-0.09-4.8-.12-5.41-0.07-1-.23-2.23l0.21-.23q1.1,0.12,2.34.16,2,0.07,7.76.07H241q5.91,0,7.9-.07,1.08,0,2.18-.16l0.23,0.23a24.86,24.86,0,0,0-.26,2.51q0,0.19-.09,5.13H249a27.4,27.4,0,0,0-.3-3.49,2.33,2.33,0,0,0-.3-1,1.62,1.62,0,0,0-.75-0.16q-1.92-.19-4.62-0.19h-3.35q-0.07.82-.07,6.42v14a38.81,38.81,0,0,0,.26,6.09,1.4,1.4,0,0,0,.7.9,11.12,11.12,0,0,0,3.35.39v1.92q-4.55-.21-7.66-0.21Q232.89,1106.9,228.56,1107.11Z" transform="translate(-91.05 -752.76)"/><path class="cls-13" d="M278.89,1074.32v2.06a22.68,22.68,0,0,0-2.81.18,1.63,1.63,0,0,0-.63.26,0.77,0.77,0,0,0-.26.39,5.57,5.57,0,0,0-.23,1.52q0,0.61-.07,2.3-0.09,5.77-.09,6.21v9.45l0.07,4.29a12.89,12.89,0,0,0,.23,3.14,1,1,0,0,0,.32.5,1.77,1.77,0,0,0,.7.28,21.92,21.92,0,0,0,2.78.15v2.06q-3.82-.14-8.16-0.14-3.77,0-6.73.14V1105q2.44-.09,2.81-0.16a1.4,1.4,0,0,0,.67-0.26,0.72,0.72,0,0,0,.22-0.37q0.07-.28.19-2.2,0.19-2.81.19-5.2V1087q0-4.66,0-6a29.75,29.75,0,0,0-.28-3.73,1,1,0,0,0-.22-0.47,1.17,1.17,0,0,0-.56-0.27,24.75,24.75,0,0,0-3-.2v-2.06q3,0.14,6.77.14Q275.07,1074.46,278.89,1074.32Z" transform="translate(-91.05 -752.76)"/><path class="cls-13" d="M291.87,1105.11a25.74,25.74,0,0,0,3.16-.26,1,1,0,0,0,.43-0.3,2,2,0,0,0,.29-0.87q0.14-.89.33-4.31,0.09-1.95.09-5.06v-7.52l-0.09-6.82a13.72,13.72,0,0,0-.14-2.23,1.69,1.69,0,0,0-.34-0.76,1.52,1.52,0,0,0-.74-0.39,23.18,23.18,0,0,0-3-.3v-2q3,0.14,4.38.14l3.4-.07,2.16-.07q4.83,6.3,11.7,14.53,4.95,5.93,8.2,9.28v-5.41q0-12.61-.28-14.84a1.66,1.66,0,0,0-.42-1.12q-0.54-.42-3.66-0.47v-2q2.86,0.14,5.25.14t6-.14v2a9.33,9.33,0,0,0-3.4.42,0.6,0.6,0,0,0-.26.35,26.67,26.67,0,0,0-.46,5.36q-0.11,4.18-.11,6.18,0,15.59.3,18.91l-0.3.21q-2-.33-4-0.61-7.57-8.46-21.47-25.41v11.67q0,3.63.14,7.57a18.05,18.05,0,0,0,.28,3.3,1,1,0,0,0,.32.46,1.65,1.65,0,0,0,.79.25,20.44,20.44,0,0,0,2.23.19l0.47,0v1.9l-5.06,0q-2.27,0-6.16.14v-2Z" transform="translate(-91.05 -752.76)"/><path class="cls-13" d="M373.94,1083.81h-1.87q0-.75-0.09-2.23a11.74,11.74,0,0,0-.23-1.76,5.78,5.78,0,0,0-1.27-1.15,12.53,12.53,0,0,0-3.52-1.62,15.94,15.94,0,0,0-4.5-.59,12.48,12.48,0,0,0-9.39,3.63q-3.53,3.63-3.53,10,0,6.94,3.71,11a11.83,11.83,0,0,0,9.11,4.09,14.16,14.16,0,0,0,3.06-.33,15.37,15.37,0,0,0,2.92-1q0.07-.63.12-2.44t0-2.18a10.14,10.14,0,0,0-.19-2.67,0.88,0.88,0,0,0-.63-0.4,29.85,29.85,0,0,0-4.45-.45v-1.9l7,0.09,7.05-.09v1.55a3.27,3.27,0,0,0-1.78.77,2.5,2.5,0,0,0-.26,1.29q-0.12,2.7-.12,3.87a32.7,32.7,0,0,0,.21,3.66,53.63,53.63,0,0,1-7.61,2.25,32.63,32.63,0,0,1-6.48.66,23,23,0,0,1-9.33-1.78,16.23,16.23,0,0,1-4.85-3.26,14.62,14.62,0,0,1-3.07-4.29,18.49,18.49,0,0,1-1.66-7.92,17.33,17.33,0,0,1,1.09-6.42,14.86,14.86,0,0,1,3-4.79,16.48,16.48,0,0,1,4.42-3.33,19.86,19.86,0,0,1,5.18-1.83,29.84,29.84,0,0,1,5.94-.55,35.82,35.82,0,0,1,7.42.73,27.22,27.22,0,0,1,5.36,1.59l0.19,0.45A48.35,48.35,0,0,0,373.94,1083.81Z" transform="translate(-91.05 -752.76)"/><path class="cls-13" d="M122.18,1121.58h4.65v27.53h-5L106.19,1129v20.09h-4.65v-27.53h4.65l16,20.56v-20.56Z" transform="translate(-91.05 -752.76)"/><path class="cls-13" d="M188.78,1145.31a15.1,15.1,0,0,1-20.64,0,14.45,14.45,0,0,1,0-20.32,15.1,15.1,0,0,1,20.64,0A14.46,14.46,0,0,1,188.78,1145.31Zm-3.41-17.23a9.66,9.66,0,0,0-13.83,0,10.28,10.28,0,0,0,0,14.14,9.66,9.66,0,0,0,13.83,0A10.29,10.29,0,0,0,185.37,1128.08Z" transform="translate(-91.05 -752.76)"/><path class="cls-13" d="M244.18,1149.12H239l-11.07-27.53h5.2l8.47,20.56,8.47-20.56h5.2Z" transform="translate(-91.05 -752.76)"/><path class="cls-13" d="M314.79,1121.58V1126H300.09v7.29h13.2v4.13h-13.2v7.37h15.17v4.37H295.45v-27.53h19.34Z" transform="translate(-91.05 -752.76)"/><path class="cls-13" d="M354.47,1149.12v-27.53h4.65v23.12h12.57v4.41H354.47Z" transform="translate(-91.05 -752.76)"/><text x="-91.05" y="-752.76"/></svg>